<?xml version="1.0" encoding="utf-8"?>
<!-- Generator: Adobe Illustrator 22.1.0, SVG Export Plug-In . SVG Version: 6.00 Build 0)  -->
<svg version="1.1" id="Layer_1" xmlns="http://www.w3.org/2000/svg" xmlns:xlink="http://www.w3.org/1999/xlink" x="0px" y="0px"
	 width="16px" height="16px" viewBox="0 0 16 16" enable-background="new 0 0 16 16" xml:space="preserve">
<g>
	<g>
		<polygon fill="#FF0200" points="14.91297,11.97361 14.91297,3.9912 8,0 1.08703,3.9912 1.08703,11.97361 8,15.96482 		"/>
		<polygon fill="#D40000" points="14.91297,12.00879 14.91297,4.02638 8,0.03518 8,16 		"/>
		<polygon fill="#FF2A2A" points="14.91297,4.02638 14.91297,3.9912 8,0 1.08703,3.9912 1.08703,4.02638 8,8.01759 		"/>
	</g>
	<g>
		<path fill="#FFFFFF" d="M2.95115,10.82864c0,0,0.23259-0.013,0.80788-0.31124l0.08146,0.19283l0.54288-0.2204l0.05187,1.41977
			l0.55229-0.29486l0.25739-1.48231c0,0,0.71906-0.30816,0.95786-0.42543c0.22324-0.10962,0.89031-0.48213,0.89031-0.48213
			l0.42103,0.89872l0.58342,3.0596l0.40407-0.1481l0.57738-4.98305c0,0,3.40146-1.40092,3.86482-2.87072l-0.01717,0.00971
			c-1.49991-0.35447-4.44731,1.83144-4.44731,1.83144L3.91255,4.94673L3.57724,5.21649l2.3202,2.07803L6.45019,8.1188
			c0,0-0.66321,0.37932-0.87228,0.51403C5.35427,8.77692,4.71936,9.23398,4.71936,9.23398L3.3167,8.68987L2.77921,9.01091
			L3.96876,9.7877l-0.46884,0.35139l0.12318,0.16926C3.07085,10.64736,2.95115,10.82864,2.95115,10.82864"/>
	</g>
</g>
</svg>
