<svg version="1.1" id="el_e38bDzmmq" xmlns="http://www.w3.org/2000/svg" xmlns:xlink="http://www.w3.org/1999/xlink" x="0px" y="0px" viewBox="0 0 52 52" style="enable-background:new 0 0 52.2 52.2;" xml:space="preserve"><style>@-webkit-keyframes el_zDIAST0XIB_Animation{0%{opacity: 1;}33.33%{opacity: 0.5;}66.67%{opacity: 0.3;}100%{opacity: 1;}}@keyframes el_zDIAST0XIB_Animation{0%{opacity: 1;}33.33%{opacity: 0.5;}66.67%{opacity: 0.3;}100%{opacity: 1;}}@-webkit-keyframes el_oJlS5SpCGU_Animation{0%{opacity: 0.3;}33.33%{opacity: 0.3;}66.67%{opacity: 1;}100%{opacity: 0.5;}}@keyframes el_oJlS5SpCGU_Animation{0%{opacity: 0.3;}33.33%{opacity: 0.3;}66.67%{opacity: 1;}100%{opacity: 0.5;}}@-webkit-keyframes el_NFCCU5ocul_Animation{0%{opacity: 0.3;}33.33%{opacity: 1;}66.67%{opacity: 0.5;}100%{opacity: 0.3;}}@keyframes el_NFCCU5ocul_Animation{0%{opacity: 0.3;}33.33%{opacity: 1;}66.67%{opacity: 0.5;}100%{opacity: 0.3;}}#el_e38bDzmmq *{-webkit-animation-duration: 1s;animation-duration: 1s;-webkit-animation-iteration-count: infinite;animation-iteration-count: infinite;-webkit-animation-timing-function: cubic-bezier(0, 0, 1, 1);animation-timing-function: cubic-bezier(0, 0, 1, 1);}#el_zDIAST0XIB{fill: #FF2A2A;-webkit-animation-name: el_zDIAST0XIB_Animation;animation-name: el_zDIAST0XIB_Animation;}#el_NFCCU5ocul{fill: #D40000;-webkit-animation-name: el_NFCCU5ocul_Animation;animation-name: el_NFCCU5ocul_Animation;}#el_xEJrKveULN{fill: none;}#el_oJlS5SpCGU{fill: #FF0200;-webkit-animation-name: el_oJlS5SpCGU_Animation;animation-name: el_oJlS5SpCGU_Animation;}#el_kYrzqjS5ZU{fill: #FFFFFF;}</style>

<polygon points="48.4,13.8 48.4,13.7 26.1,0.8 3.9,13.7 3.9,13.8 26.1,26.6 " id="el_zDIAST0XIB"/>
<polygon points="26.1,52.2 48.4,39.4 48.4,13.8 26.1,26.6 " id="el_NFCCU5ocul"/>
<polygon points="26.1,0.8 3.9,13.7 3.9,13.8 3.9,13.8 3.9,39.4 26.1,52.2 48.4,39.4 48.4,13.8 48.4,13.8 48.4,13.7 " id="el_xEJrKveULN"/>
<polygon points="26.1,26.6 3.9,13.8 3.9,39.4 26.1,52.2 " id="el_oJlS5SpCGU"/>
<g id="el_rEXM4w4qBt">
	<path d="M6.9,37.3c0,0,0.8,0,2.9-1.1l0.3,0.7l2-0.8l0.2,5.1l2-1.1l0.9-5.3c0,0,2.6-1.1,3.4-1.5&#10;&#9;&#9;c0.8-0.4,3.2-1.7,3.2-1.7l1.5,3.2l2.1,11l1.5-0.5L29,27.3c0,0,12.2-5,13.9-10.3l-0.1,0c-5.4-1.3-16,6.6-16,6.6l-16.4-7.5l-1.2,1&#10;&#9;&#9;l8.3,7.5l2,3c0,0-2.4,1.4-3.1,1.8c-0.8,0.5-3.1,2.2-3.1,2.2l-5-2l-1.9,1.2l4.3,2.8l-1.7,1.3l0.4,0.6C7.4,36.7,6.9,37.3,6.9,37.3" id="el_kYrzqjS5ZU"/>
</g>
<script>(function(){var a=document.querySelector('#el_e38bDzmmq'),b=a.querySelectorAll('style'),c=function(d){b.forEach(function(f){var g=f.textContent;g&amp;&amp;(f.textContent=g.replace(/transform-box:[^;\r\n]*/gi,'transform-box: '+d))})};c('initial'),window.requestAnimationFrame(function(){return c('fill-box')})})();</script></svg>