<svg xmlns="http://www.w3.org/2000/svg">
  
    <symbol id="icon-logout" viewBox="0 0 512 512">
      <path d="m164 480c-2 0-2 0-4 0-94-38-154-128-154-230 3-139 113-250 250-250 137 0 250 111 250 250 0 100-60 189-152 228-6 2-11 0-15-7-2-6 0-10 7-14 85-37 138-118 138-210 0-123-102-226-228-226-126 0-226 103-226 229 0 91 55 175 141 209 6 2 8 8 6 15-4 2-8 6-13 6z m92 32c-6 0-11-4-11-11l0-185c0-7 5-11 11-11 6 0 11 4 11 11l0 185c0 7-5 11-11 11z"/>
    </symbol>
  
    <symbol id="icon-pack-details" viewBox="0 0 512 512">
      <path d="m512 117c0-2 0-4-2-4 0 0 0 0 0-2 0 0-2-2-2-2l-248-109c-2 0-6 0-8 0l-246 107c0 0-2 2-2 2 0 0 0 0 0 2-4 4-4 4-4 6l0 278c0 4 2 8 6 10l246 107c2 0 2 0 4 0 2 0 2 0 4 0l246-107c4-2 6-6 6-10z m-256-96l218 96-99 43-198-105z m0 192l-218-96 116-51 198 105z m-235-79l224 99 0 253-224-98z m470 254l-224 98 0-256 224-96z m-295-132l-117-53c-4-2-6-2-11 0-2 4-4 6-4 10l0 107c0 4 2 9 6 11l118 53c2 0 2 0 4 0 2 0 4 0 6-2 3-2 5-7 5-9l0-106c0-5-2-9-7-11z m-15 100l-96-42 0-84 96 43z"/>
    </symbol>
  
    <symbol id="icon-search-more" viewBox="0 0 512 512">
      <path d="m510 493l-192-192c28-32 47-75 47-120-2-100-83-181-184-181-100 0-181 81-181 181 0 101 81 182 181 182 47 0 88-17 120-47l192 192c2 2 4 2 8 2 5 0 7 0 9-2 2-2 2-11 0-15z m-489-312c0-87 73-160 160-160 88 0 160 73 160 160 0 88-72 160-160 160-87 0-160-72-160-160z m235-10l-64 0 0-64c0-7-4-11-11-11-6 0-10 4-10 11l0 64-64 0c-7 0-11 4-11 10 0 7 4 11 11 11l64 0 0 64c0 6 4 11 10 11 7 0 11-5 11-11l0-64 64 0c6 0 11-4 11-11 0-6-5-10-11-10z"/>
    </symbol>
  
    <symbol id="icon-trash" viewBox="0 0 512 512">
      <path d="m501 64l-138 0 0-53c0-7-5-11-11-11l-192 0c-6 0-11 4-11 11l0 53-138 0c-7 0-11 4-11 11 0 6 4 10 11 10l53 0 21 416c0 7 5 11 11 11l320 0c6 0 11-4 11-11l21-416 53 0c7 0 11-4 11-10 0-7-4-11-11-11z m-330-43l170 0 0 43-170 0z m234 470l-298 0-22-406 342 0z m-245-342c-6 0-11 5-11 11l0 245c0 7 5 11 11 11 6 0 11-4 11-11l0-245c0-6-5-11-11-11z m96 0c-6 0-11 5-11 11l0 245c0 7 5 11 11 11 6 0 11-4 11-11l0-245c0-6-5-11-11-11z m85 0l0 246c0 6 5 10 11 10 6 0 11-4 11-10l0-246c0-6-5-10-11-10-6 0-11 4-11 10z"/>
    </symbol>
  
    <symbol id="icon-user" viewBox="0 0 512 512">
      <path d="m81 439c-2 0-6-2-8-2-47-49-73-113-73-181 0-141 115-256 256-256 141 0 256 115 256 256 0 68-26 132-75 179-4 4-8 4-12 2-20-12-56-27-96-40-11-4-24-9-35-13-4-2-6-6-6-11l0-53c0-4 2-9 6-11 0 0 26-10 26-53 0-6 4-11 11-11 0 0 2-4 2-10 0-7-2-11-2-11-7 0-11-4-11-11 0-2 0-6 2-12 4-13 13-41 9-60-5-13-28-24-60-24-32 0-56 11-58 24-2 6-6 8-12 8-5 0-13-2-15 2-9 9 0 41 4 52 2 4 2 8 2 10 0 7-4 11-11 11 0 0-2 4-2 11 0 6 2 10 2 10 7 0 11 5 11 11 0 45 23 53 26 53 4 2 6 7 6 11l0 53c0 5-2 9-6 11-11 4-22 9-32 13-39 13-77 28-99 42-2 0-4 0-6 0z m175-418c-130 0-235 105-235 235 0 60 22 115 62 158 24-15 60-28 94-41 9-2 17-6 26-8l0-39c-11-6-30-23-32-61-9-5-13-15-13-30 0-13 4-24 11-28-5-19-15-53 2-70 6-7 15-11 25-9 13-23 47-32 77-32 32 0 73 11 79 41 6 25-2 55-9 70 7 6 11 15 11 28 0 12-4 23-13 30-2 38-21 55-32 61l0 39c9 4 20 6 28 10 36 13 70 26 92 39 40-43 62-100 62-158 0-130-105-235-235-235z"/>
    </symbol>
    <symbol id="icon-arrow" viewBox="0 0 512 512">
      <path d="m128 81l85 0-128 135 407 0 0 56-408 0 129 143-85 0-128-143 0-56z"/>
    </symbol>
  
    <symbol id="icon-search" viewBox="0 0 512 512">
      <path d="m509 494l-192-192c28-32 46-75 46-121 0-100-82-181-182-181-100 0-181 81-181 181 0 100 81 182 181 182 46 0 89-18 121-46l192 192c2 2 5 3 7 3 3 0 6-1 8-3 4-4 4-11 0-15z m-488-313c0-88 72-160 160-160 89 0 160 72 160 160 0 89-71 160-160 160-88 0-160-71-160-160z"/>
    </symbol>
  
    <symbol id="icon-notification" viewBox="0 0 512 512">
      <path d="m501 416c-29 0-53-24-53-53l0-118c0-77-48-148-120-177-8-34-37-57-72-57-34 0-65 24-73 57-71 29-119 100-119 177l0 118c0 29-24 53-53 53-6 0-11 5-11 11 0 6 5 10 11 10l171 0c6 36 36 64 74 64 38 0 68-28 74-64l171 0c6 0 11-4 11-10 0-6-5-11-11-11z m-245 64c-26 0-47-18-52-43l104 0c-5 25-26 43-52 43z m-193-64c14-14 22-32 22-53l0-118c0-70 45-135 112-159 3-2 6-5 6-9 4-26 27-45 53-45 26 0 49 19 53 45 0 4 3 7 6 9 67 24 112 89 112 159l0 118c0 21 8 39 22 53z"/>
    </symbol>
  
    <symbol id="icon-edit" viewBox="0 0 512 512">
      <path d="m508 102c0-14-5-27-15-37l-46-46c-20-20-54-20-75 0l-327 328c0 0 0 0 0 0 0 0 0 0 0 0l-6 5c-1 2-2 3-3 5l-32 138c-1 4 0 8 3 10 2 2 5 3 7 3 1 0 2 0 3 0l138-32c2-1 3-2 5-3l5-6 282-281c0 0 0 0 0 0 0-1 0-1 0-1l30-30c0 0 1 0 1 0 0 0 0 0 0 0l15-15c10-10 15-23 15-38z m-68 61l-91-91 15-15 91 91z m-282 282l-91-91 267-267 91 91z m-103-73l85 85-111 26z m423-247l-8 7-90-90 7-8c13-12 33-12 45 0l46 46c6 6 9 14 9 22 0 9-3 17-9 23z"/>
    </symbol>
  
</svg>
