<?xml version="1.0" encoding="utf-8"?>
<!-- Generator: Adobe Illustrator 22.1.0, SVG Export Plug-In . SVG Version: 6.00 Build 0)  -->
<svg version="1.1" id="Layer_1" xmlns="http://www.w3.org/2000/svg" xmlns:xlink="http://www.w3.org/1999/xlink" x="0px" y="0px"
	 width="52.2px" height="52.2px" viewBox="0 0 52.2 52.2" style="enable-background:new 0 0 52.2 52.2;" xml:space="preserve">
<style type="text/css">
	.st0{fill:#FF2A2A;}
	.st1{fill:#D40000;}
	.st2{fill:none;}
	.st3{fill:#FF0200;}
	.st4{fill:#FFFFFF;}
</style>
<polygon class="st0" points="48.4,13.8 48.4,13.7 26.1,0.8 3.9,13.7 3.9,13.8 26.1,26.6 "/>
<polygon class="st1" points="26.1,52.2 48.4,39.4 48.4,13.8 26.1,26.6 "/>
<polygon class="st2" points="26.1,0.8 3.9,13.7 3.9,13.8 3.9,13.8 3.9,39.4 26.1,52.2 48.4,39.4 48.4,13.8 48.4,13.8 48.4,13.7 "/>
<polygon class="st3" points="26.1,26.6 3.9,13.8 3.9,39.4 26.1,52.2 "/>
<g>
	<path class="st4" d="M6.9,37.3c0,0,0.8,0,2.9-1.1l0.3,0.7l2-0.8l0.2,5.1l2-1.1l0.9-5.3c0,0,2.6-1.1,3.4-1.5
		c0.8-0.4,3.2-1.7,3.2-1.7l1.5,3.2l2.1,11l1.5-0.5L29,27.3c0,0,12.2-5,13.9-10.3l-0.1,0c-5.4-1.3-16,6.6-16,6.6l-16.4-7.5l-1.2,1
		l8.3,7.5l2,3c0,0-2.4,1.4-3.1,1.8c-0.8,0.5-3.1,2.2-3.1,2.2l-5-2l-1.9,1.2l4.3,2.8l-1.7,1.3l0.4,0.6C7.4,36.7,6.9,37.3,6.9,37.3"/>
</g>
</svg>
